<?xml version="1.0" encoding="UTF-8"?>
<svg width="194px" height="54px" viewBox="0 0 194 54" version="1.1" xmlns="http://www.w3.org/2000/svg" xmlns:xlink="http://www.w3.org/1999/xlink">
    <!-- Generator: Sketch 48.1 (47250) - http://www.bohemiancoding.com/sketch -->

        <g id="rh-logo" fill-rule="nonzero">
            <path d="M129.53061,34.7646957 C130.573983,34.7914236 131.606811,34.5504306 132.53061,34.0646957 C133.344684,33.6193083 134.006514,32.9400616 134.43061,32.1146957 C134.884898,31.2202871 135.111592,30.2276437 135.09061,29.2246957 L135.09061,27.4246957 C135.098989,27.2966807 135.055774,27.1706385 134.97061,27.0746957 C134.87358,26.9914125 134.748329,26.9484694 134.62061,26.9546957 L130.23061,26.9546957 C130.106811,26.9471786 129.986019,26.9947631 129.90061,27.0846957 C129.818851,27.1786586 129.775944,27.30023 129.78061,27.4246957 L129.78061,27.6746957 C129.775944,27.7991614 129.818851,27.9207328 129.90061,28.0146957 C129.984171,28.1083186 130.105218,28.1596721 130.23061,28.1546957 L133.80061,28.1546957 L133.80061,29.1546957 C133.888583,30.3458953 133.462758,31.5178261 132.63061,32.3746957 C131.783489,33.1225868 130.67959,33.5132521 129.55061,33.4646957 C128.450893,33.5266834 127.371643,33.1489461 126.55061,32.4146957 C125.746221,31.5240763 125.322638,30.3538379 125.37061,29.1546957 C125.37061,28.7446957 125.37061,28.1546957 125.37061,27.3146957 C125.37061,26.4746957 125.37061,25.8746957 125.37061,25.4646957 C125.324775,24.2658855 125.748076,23.096428 126.55061,22.2046957 C127.379444,21.4884971 128.457823,21.1290372 129.55061,21.2046957 C130.499254,21.1529987 131.43923,21.4090369 132.23061,21.9346957 C132.860778,22.3864128 133.330244,23.0275493 133.57061,23.7646957 C133.606184,23.8843416 133.663844,23.9962697 133.74061,24.0946957 C133.813974,24.1534101 133.906929,24.1820116 134.00061,24.1746957 L134.45061,24.1746957 C134.562208,24.1768991 134.671335,24.1416969 134.76061,24.0746957 C134.839669,24.0076879 134.88385,23.9082808 134.88061,23.8046957 C134.819748,23.2288125 134.605654,22.6797653 134.26061,22.2146957 C133.795452,21.5658135 133.18167,21.0377558 132.47061,20.6746957 C131.560176,20.2161696 130.549488,19.9927182 129.53061,20.0246957 C128.049418,19.9271762 126.59617,20.461245 125.53061,21.4946957 C124.535479,22.5859218 123.998372,24.0182068 124.03061,25.4946957 C124.03061,25.9046957 124.03061,26.5546957 124.03061,27.4446957 C124.03061,28.3346957 124.03061,28.9746957 124.03061,29.3846957 C123.994212,30.8618892 124.531881,32.2956743 125.53061,33.3846957 C126.595149,34.420708 128.048111,34.958304 129.53061,34.8646957 L129.53061,34.7646957 Z M108.53061,34.6546957 L109.00061,34.6546957 C109.125075,34.6593618 109.246647,34.6164542 109.34061,34.5346957 C109.430542,34.4492861 109.478127,34.3284946 109.47061,34.2046957 L109.47061,22.7846957 L117.00061,34.3146957 C117.09188,34.4646264 117.255086,34.5557179 117.43061,34.5546957 L117.88061,34.5546957 C118.00419,34.5608601 118.124437,34.5134902 118.21061,34.4246957 C118.292368,34.3307328 118.335276,34.2091614 118.33061,34.0846957 L118.33061,20.6746957 C118.347151,20.5456781 118.30298,20.416277 118.211004,20.3243011 C118.119028,20.2323251 117.989627,20.1881547 117.86061,20.2046957 L117.49061,20.2046957 C117.367451,20.2010234 117.248173,20.2480115 117.16061,20.3346957 C117.065098,20.4229151 117.007708,20.54487 117.00061,20.6746957 L117.00061,32.0146957 L109.43061,20.4546957 C109.343369,20.2994012 109.178728,20.2036796 109.00061,20.2046957 L108.57061,20.2046957 C108.448235,20.2053006 108.330517,20.2516746 108.24061,20.3346957 C108.159717,20.4291608 108.116933,20.5503824 108.12061,20.6746957 L108.12061,34.1046957 C108.114271,34.2264072 108.157572,34.3454846 108.24061,34.4346957 C108.331506,34.514939 108.449402,34.5578103 108.57061,34.5546957 L108.53061,34.6546957 Z M100.97061,34.5546957 L101.36061,34.5546957 C101.481818,34.5578103 101.599714,34.514939 101.69061,34.4346957 C101.773647,34.3454846 101.816948,34.2264072 101.81061,34.1046957 L101.81061,20.6746957 C101.819678,20.5527937 101.775188,20.4329895 101.688752,20.3465536 C101.602316,20.2601177 101.482512,20.2156275 101.36061,20.2246957 L101.00061,20.2246957 C100.878898,20.2183573 100.759821,20.2616581 100.67061,20.3446957 C100.590366,20.4355917 100.547495,20.5534878 100.55061,20.6746957 L100.55061,34.1046957 C100.541541,34.2265977 100.586032,34.3464019 100.672467,34.4328378 C100.758903,34.5192737 100.878708,34.5637639 101.00061,34.5546957 L100.97061,34.5546957 Z M90.2606096,34.5546957 L90.6206096,34.5546957 C90.7450753,34.5593618 90.8666467,34.5164542 90.9606096,34.4346957 C91.0542325,34.3511345 91.105586,34.2300869 91.1006096,34.1046957 L91.1006096,21.4346957 L95.1006096,21.4346957 C95.2250753,21.4393618 95.3466467,21.3964542 95.4406096,21.3146957 C95.5342325,21.2311345 95.585586,21.1100869 95.5806096,20.9846957 L95.5806096,20.6746957 C95.5937329,20.5446614 95.5470043,20.4157166 95.4536215,20.3242793 C95.3602387,20.232842 95.2303388,20.1888381 95.1006096,20.2046957 L85.7306096,20.2046957 C85.6074509,20.2010234 85.4881733,20.2480115 85.4006096,20.3346957 C85.3169296,20.42818 85.2706458,20.5492299 85.2706096,20.6746957 L85.2706096,20.9846957 C85.2669373,21.1078544 85.3139254,21.227132 85.4006096,21.3146957 C85.4898207,21.3977333 85.6088981,21.4410342 85.7306096,21.4346957 L89.7306096,21.4346957 L89.7306096,34.1046957 C89.7269373,34.2278544 89.7739254,34.347132 89.8606096,34.4346957 C89.9498207,34.5177333 90.0688981,34.5610342 90.1906096,34.5546957 L90.2606096,34.5546957 Z M79.4406096,34.5546957 L79.8306096,34.5546957 C79.9525116,34.5637639 80.0723158,34.5192737 80.1587518,34.4328378 C80.2451877,34.3464019 80.2896778,34.2265977 80.2806096,34.1046957 L80.2806096,20.6746957 C80.2837243,20.5534878 80.240853,20.4355917 80.1606096,20.3446957 C80.0713985,20.2616581 79.9523211,20.2183573 79.8306096,20.2246957 L79.4406096,20.2246957 C79.3221312,20.219944 79.2067498,20.263212 79.1206096,20.3446957 C79.0365483,20.433277 78.993082,20.5528094 79.0006096,20.6746957 L79.0006096,34.1046957 C78.9930925,34.2284946 79.040677,34.3492861 79.1306096,34.4346957 C79.2167498,34.5161794 79.3321312,34.5594474 79.4506096,34.5546957 L79.4406096,34.5546957 Z M67.5406096,34.7646957 C68.9883168,34.8600798 70.4098584,34.3451336 71.4606096,33.3446957 C72.4547509,32.1269526 72.9385938,30.5714871 72.8106096,29.0046957 L72.8106096,20.6746957 C72.8142867,20.5503824 72.7715026,20.4291608 72.6906096,20.3346957 C72.6030459,20.2480115 72.4837683,20.2010234 72.3606096,20.2046957 L72.0006096,20.2046957 C71.8762963,20.2010186 71.7550747,20.2438028 71.6606096,20.3246957 C71.5697491,20.4177404 71.5225192,20.5448978 71.5306096,20.6746957 L71.5306096,29.0646957 C71.6348307,30.2709223 71.2774391,31.4717579 70.5306096,32.4246957 C68.8464842,33.9054769 66.324735,33.9054769 64.6406096,32.4246957 C63.8892145,31.4741235 63.5312724,30.2714382 63.6406096,29.0646957 L63.6406096,20.6746957 C63.6487,20.5448978 63.6014702,20.4177404 63.5106096,20.3246957 C63.4146668,20.2395309 63.2886246,20.1963165 63.1606096,20.2046957 L62.8006096,20.2046957 C62.6774509,20.2010234 62.5581733,20.2480115 62.4706096,20.3346957 C62.3869296,20.42818 62.3406458,20.5492299 62.3406096,20.6746957 L62.3406096,29.0046957 C62.2122859,30.5717831 62.7042333,32.1266243 63.7106096,33.3346957 C64.7590165,34.3398412 66.1812497,34.858666 67.6306096,34.7646957 L67.5406096,34.7646957 Z M48.1306096,27.2546957 L48.1306096,21.4346957 L52.0006096,21.4346957 C52.9452983,21.3601432 53.8863069,21.6183899 54.6606096,22.1646957 C55.2715917,22.7180951 55.5926909,23.5226885 55.5306096,24.3446957 C55.5897817,25.1691758 55.2694285,25.9755819 54.6606096,26.5346957 C53.8828699,27.0729013 52.9436354,27.3271302 52.0006096,27.2546957 L48.1306096,27.2546957 Z M47.2906096,34.5546957 L47.6606096,34.5546957 C47.7849229,34.5583728 47.9061446,34.5155887 48.0006096,34.4346957 C48.0872938,34.347132 48.134282,34.2278544 48.1306096,34.1046957 L48.1306096,28.4846957 L52.3506096,28.4846957 L55.6106096,34.0046957 C55.6954202,34.1600744 55.8033147,34.301686 55.9306096,34.4246957 C56.0631571,34.5222711 56.2265964,34.5684605 56.3906096,34.5546957 L56.6406096,34.5546957 C56.7465936,34.5554939 56.8480952,34.5119932 56.9206096,34.4346957 C57.0053654,34.3625099 57.0531124,34.2559974 57.0506096,34.1446957 C57.0481892,34.0676643 57.0276326,33.99229 56.9906096,33.9246957 L53.6806096,28.3046957 C54.5849858,28.1379962 55.4043032,27.6647698 56.0006096,26.9646957 C56.5605158,26.2092862 56.8430385,25.2840243 56.8006096,24.3446957 C56.8820239,23.1771596 56.420892,22.0372413 55.5506096,21.2546957 C54.5524348,20.5214393 53.3260554,20.1669944 52.0906096,20.2546957 L47.2906096,20.2546957 C47.1674509,20.2510234 47.0481733,20.2980115 46.9606096,20.3846957 C46.8797167,20.4791608 46.8369326,20.6003824 46.8406096,20.7246957 L46.8406096,34.1046957 C46.8315415,34.2265977 46.8760316,34.3464019 46.9624675,34.4328378 C47.0489034,34.5192737 47.1687076,34.5637639 47.2906096,34.5546957 Z M35.8906096,34.7646957 C36.9308744,34.7954424 37.9622681,34.5650978 38.8906096,34.0946957 C39.6366758,33.7151358 40.2605596,33.1328443 40.6906096,32.4146957 C41.0651165,31.7815916 41.2844298,31.0688235 41.3306096,30.3346957 C41.3522741,30.2220457 41.3099589,30.1066406 41.2206096,30.0346957 C41.129969,29.9619528 41.0168188,29.9230574 40.9006096,29.9246957 L40.4906096,29.9246957 C40.2506096,29.9246957 40.1006096,30.0646957 40.0406096,30.3546957 C39.8949595,31.3222312 39.3918492,32.1999981 38.6306096,32.8146957 C37.8029998,33.3331719 36.835941,33.5845374 35.8606096,33.5346957 C34.7526852,33.603371 33.6660452,33.2085585 32.8606096,32.4446957 C32.0710492,31.5155073 31.6604577,30.3230066 31.7106096,29.1046957 C31.7106096,28.7046957 31.7106096,28.1046957 31.7106096,27.3646957 C31.7106096,26.6246957 31.7106096,26.0246957 31.7106096,25.6546957 C31.6624281,24.4366738 32.0727799,23.2448695 32.8606096,22.3146957 C33.6677075,21.5544693 34.7541462,21.1633513 35.8606096,21.2346957 C36.8343779,21.1869757 37.7998589,21.4344456 38.6306096,21.9446957 C39.3918492,22.5593933 39.8949595,23.4371602 40.0406096,24.4046957 C40.1006096,24.6946957 40.2506096,24.8346957 40.4906096,24.8346957 L40.9006096,24.8346957 C41.0128048,24.8412426 41.1233891,24.8055703 41.2106096,24.7346957 C41.2869352,24.6699211 41.3308362,24.5748021 41.3306096,24.4746957 L41.3306096,24.4246957 C41.2844298,23.690568 41.0651165,22.9777998 40.6906096,22.3446957 C40.2616067,21.6389194 39.6501151,21.0619754 38.9206096,20.6746957 C37.99137,20.2077516 36.9600219,19.980855 35.9206096,20.0146957 C34.4314251,19.9011349 32.9679278,20.4499463 31.9206096,21.5146957 C30.9850186,22.6559429 30.4790212,24.0890123 30.4906096,25.5646957 C30.4906096,25.9446957 30.4906096,26.5646957 30.4906096,27.4146957 C30.4906096,28.2646957 30.4906096,28.8446957 30.4906096,29.2146957 C30.4890003,30.6735142 30.9945119,32.0875325 31.9206096,33.2146957 C32.9669002,34.2819335 34.4300688,34.8342797 35.9206096,34.7246957 L35.8906096,34.7646957 Z M17.0006096,34.5546957 L25.1606096,34.5546957 C25.2850753,34.5593618 25.4066467,34.5164542 25.5006096,34.4346957 C25.5905422,34.3492861 25.6381267,34.2284946 25.6306096,34.1046957 L25.6306096,33.7946957 C25.636836,33.6669767 25.5938928,33.5417258 25.5106096,33.4446957 C25.4146668,33.3595309 25.2886246,33.3163165 25.1606096,33.3246957 L17.8706096,33.3246957 L17.8706096,27.8946957 L24.5706096,27.8946957 C24.6950753,27.8993618 24.8166467,27.8564542 24.9106096,27.7746957 C25.000966,27.6888325 25.0516607,27.5693378 25.0506096,27.4446957 L25.0506096,27.1346957 C25.0600032,27.0047085 25.0125809,26.8770331 24.9206096,26.7846957 C24.8246668,26.6995309 24.6986246,26.6563165 24.5706096,26.6646957 L17.8706096,26.6646957 L17.8706096,21.4346957 L25.0006096,21.4346957 C25.1218176,21.4378103 25.2397137,21.394939 25.3306096,21.3146957 C25.4242325,21.2311345 25.475586,21.1100869 25.4706096,20.9846957 L25.4706096,20.6746957 C25.4787,20.5448978 25.4314702,20.4177404 25.3406096,20.3246957 C25.2489549,20.2390563 25.1257145,20.1955597 25.0006096,20.2046957 L17.0006096,20.2046957 C16.8774509,20.2010234 16.7581733,20.2480115 16.6706096,20.3346957 C16.5897167,20.4291608 16.5469326,20.5503824 16.5506096,20.6746957 L16.5506096,34.1046957 C16.5415415,34.2265977 16.5860316,34.3464019 16.6724675,34.4328378 C16.7589034,34.5192737 16.8787076,34.5637639 17.0006096,34.5546957 Z M2.29060962,27.2546957 L2.29060962,21.4346957 L6.12060962,21.4346957 C7.06529832,21.3601432 8.00630686,21.6183899 8.78060962,22.1646957 C9.39159167,22.7180951 9.71269088,23.5226885 9.65060962,24.3446957 C9.70978167,25.1691758 9.38942854,25.9755819 8.78060962,26.5346957 C8.00286992,27.0729013 7.06363538,27.3271302 6.12060962,27.2546957 L2.29060962,27.2546957 Z M1.45060962,34.5546957 L1.82060962,34.5546957 C1.94507531,34.5593618 2.06664674,34.5164542 2.16060962,34.4346957 C2.25054224,34.3492861 2.29812674,34.2284946 2.29060962,34.1046957 L2.29060962,28.4846957 L6.51060962,28.4846957 L9.77060962,34.0046957 C9.85542021,34.1600744 9.96331471,34.301686 10.0906096,34.4246957 C10.2231571,34.5222711 10.3865964,34.5684605 10.5506096,34.5546957 L10.8006096,34.5546957 C10.909151,34.5536728 11.0130814,34.5106672 11.0906096,34.4346957 C11.1684461,34.3584132 11.2117867,34.2536735 11.2106096,34.1446957 C11.2081892,34.0676643 11.1876326,33.99229 11.1506096,33.9246957 L7.85060962,28.3046957 C8.74416553,28.1315745 9.55196135,27.6588904 10.1406096,26.9646957 C10.7073387,26.2127443 10.9906293,25.2849674 10.9406096,24.3446957 C11.0266393,23.1764317 10.5647153,22.0345555 9.69060962,21.2546957 C8.69243483,20.5214393 7.46605544,20.1669944 6.23060962,20.2546957 L1.45060962,20.2546957 C1.32745093,20.2510234 1.20817332,20.2980115 1.12060962,20.3846957 C1.05052147,20.4659777 1.00844803,20.5676552 1.00060962,20.6746957 L1.00060962,34.1046957 C0.994271162,34.2264072 1.03757202,34.3454846 1.12060962,34.4346957 C1.20982075,34.5177333 1.32889811,34.5610342 1.45060962,34.5546957 Z" fill="#141414"></path>
            <path d="M167,53 C152.640597,53 141,41.3594035 141,27 C141,12.6405965 152.640597,1 167,1 C181.359403,1 193,12.6405965 193,27 C193,41.3594035 181.359403,53 167,53 Z M168.89,39.27 C170.035272,38.2542161 170.696586,36.8007794 170.71,35.27 L170.71,28.4 C170.682134,28.0681788 170.490928,27.7719967 170.2,27.61 C169.80683,27.3689871 169.350753,27.250616 168.89,27.27 C168.433132,27.2572381 167.982119,27.3751954 167.59,27.61 C167.283647,27.7619677 167.076193,28.0599464 167.04,28.4 L167.04,35.22 C167.043842,35.8820627 166.784906,36.5186146 166.32,36.99 C165.87788,37.4921551 165.239016,37.7769059 164.57,37.77 C163.898599,37.774539 163.257595,37.4904578 162.81,36.99 C162.335877,36.5231604 162.069234,35.8853808 162.07,35.22 L162.07,27.32 C162.117705,25.8390684 161.574445,24.3999698 160.56,23.32 C159.431217,22.329401 157.959666,21.8197419 156.46,21.9 L152.55,21.9 L152.55,15.55 C152.556089,15.1866596 152.343076,14.8553055 152.01,14.71 C151.190563,14.3364546 150.249437,14.3364546 149.43,14.71 C149.096924,14.8553055 148.883911,15.1866596 148.89,15.55 L148.89,33.8 C148.903794,34.1599045 149.110063,34.4845866 149.43,34.65 C149.825287,34.8648981 150.27023,34.9718223 150.72,34.96 C151.166053,34.9668972 151.60653,34.8602191 152,34.65 C152.333288,34.4980302 152.547941,34.1662943 152.55,33.8 L152.55,25.11 L155.7,25.11 C157.52,25.11 158.41,26.11 158.41,28.17 L158.41,35.24 C158.418348,36.7718965 159.080557,38.2273014 160.23,39.24 C161.388537,40.3751658 162.94804,41.007591 164.57,41 C166.18244,41.0190311 167.736395,40.3967295 168.89,39.27 Z M182.08,28.71 C182.08,30.71 181.17,31.76 179.35,31.76 L176.2,31.76 L176.2,25.15 L179.35,25.15 C181.17,25.15 182.08,26.15 182.08,28.15 L182.08,28.71 Z M184.22,33.53 C185.342804,32.3019079 185.89481,30.6567839 185.74,29 L185.74,27.89 C185.888155,26.2370153 185.336843,24.5975869 184.22,23.37 C183.078905,22.3986822 181.605667,21.9076029 180.11,22 L176.2,22 L176.2,15.64 C176.210528,15.2782913 176.001005,14.9462179 175.67,14.8 C174.84716,14.4260526 173.90284,14.4260526 173.08,14.8 C172.747102,14.9440162 172.536671,15.277531 172.55,15.64 L172.55,33.83 C172.567825,34.1466483 172.734798,34.436069 173,34.61 C173.336261,34.8451657 173.739922,34.9645088 174.15,34.95 L180.15,34.95 C181.65306,35.0329122 183.128695,34.523082 184.26,33.53 L184.22,33.53 Z" fill="#A5D535"></path>
        </g>

</svg>