<?xml version="1.0" encoding="UTF-8"?>
<svg width="24px" height="24px" viewBox="0 0 24 24" version="1.1" xmlns="http://www.w3.org/2000/svg"
     xmlns:xlink="http://www.w3.org/1999/xlink">
    <g id="clock">
        <path d="M22.3291551,2.28816024 L17.9327111,2.28816024 L17.9327111,1.64851162 C17.9327111,1.29042512 17.6322344,1 17.2617544,1 C16.8912745,1 16.5907977,1.29042512 16.5907977,1.64851162 L16.5907977,2.28816024 L12.6709567,2.28816024 L12.6709567,1.64851162 C12.6709567,1.29042512 12.3704799,1 12,1 C11.62952,1 11.3290433,1.29042512 11.3290433,1.64851162 L11.3290433,2.28816024 L7.57582317,2.28816024 L7.57582317,1.64851162 C7.57582317,1.29042512 7.27534639,1 6.90486645,1 C6.53438651,1 6.23390973,1.29042512 6.23390973,1.64851162 L6.23390973,2.28816024 L1.67095672,2.28816024 C1.30047678,2.28816024 1,2.57858536 1,2.93667186 L1,17.590008 C1,17.9480945 1.30047678,18.2385196 1.67095672,18.2385196 L5.78906542,18.2385196 C6.44895136,20.9637816 8.98226029,23 12,23 C15.0177397,23 17.5510486,20.9636735 18.2109345,18.2385196 L22.3290432,18.2385196 C22.6995232,18.2385196 23,17.9480945 23,17.590008 L23,2.93667186 C23.0001118,2.57858536 22.6997468,2.28816024 22.3291551,2.28816024 Z M6.23390974,3.58518347 L6.23390974,4.17122181 C6.23390974,4.5293083 6.53438652,4.81973342 6.90486646,4.81973342 C7.2753464,4.81973342 7.57582318,4.5293083 7.57582318,4.17122181 L7.57582318,3.58518347 L11.3290433,3.58518347 L11.3290433,4.17122181 C11.3290433,4.5293083 11.62952,4.81973342 12,4.81973342 C12.3704799,4.81973342 12.6709567,4.5293083 12.6709567,4.17122181 L12.6709567,3.58518347 L16.5907977,3.58518347 L16.5907977,4.17122181 C16.5907977,4.5293083 16.8912745,4.81973342 17.2617544,4.81973342 C17.6322344,4.81973342 17.9327111,4.5293083 17.9327111,4.17122181 L17.9327111,3.58518347 L21.6581984,3.58518347 L21.6581984,6.23716365 L2.34191344,6.23716365 L2.34191344,3.58518347 L6.23390974,3.58518347 Z M12,21.7029768 C9.2220155,21.7029768 6.96189778,19.5184654 6.96189778,16.8334111 C6.96189778,14.1483569 9.2220155,11.9638455 12,11.9638455 C14.7779845,11.9638455 17.0381022,14.1482488 17.0381022,16.8334111 C17.0381022,19.5185735 14.7780963,21.7029768 12,21.7029768 Z M18.37722,16.9414964 C18.3778909,16.9053959 18.3800156,16.8696197 18.3800156,16.8334111 C18.3800156,13.4331566 15.5179379,10.6668222 12,10.6668222 C8.48206206,10.6668222 5.61998434,13.4331566 5.61998434,16.8334111 C5.61998434,16.8696197 5.62222086,16.9053959 5.62277999,16.9414964 L2.34180162,16.9414964 L2.34180162,7.53429496 L21.6580865,7.53429496 L21.6580865,16.9414964 L18.37722,16.9414964 Z"></path>
        <path d="M12.4098351,17.1207059 L12.4098351,13.7058824 C12.4098351,13.3161176 12.0941495,13 11.7049175,13 C11.3156856,13 11,13.3161176 11,13.7058824 L11,17.4131765 C11,17.6003529 11.0742513,17.7798824 11.2064234,17.9123529 L12.8265589,19.5348235 C12.9642528,19.6725882 13.1445942,19.7415294 13.3250531,19.7415294 C13.5053945,19.7415294 13.6858533,19.6725882 13.8235472,19.5348235 C14.0988175,19.2591765 14.0988175,18.8122353 13.8235472,18.5365882 L12.4098351,17.1207059 Z"></path>
    </g>
</svg>