<?xml version="1.0" encoding="UTF-8"?>
<svg width="24px" height="24px" viewBox="0 0 24 24" version="1.1" xmlns="http://www.w3.org/2000/svg"
     xmlns:xlink="http://www.w3.org/1999/xlink">
    <g id="location">
        <path d="M12,1 C7.0373732,1 3,4.57423092 3,8.96753316 C3,14.4197585 11.0541183,22.4239441 11.3970296,22.7620226 C11.7191186,23.079605 12.2814639,23.0790464 12.6029704,22.7620226 C12.9458817,22.4239441 21,14.4197585 21,8.96753316 C20.9999029,4.57423092 16.9625783,1 12,1 Z M12,21.1836926 C9.28937533,18.3332282 4.62073484,12.7095143 4.62073484,8.96761908 C4.62073484,5.36537251 7.93102946,2.43481425 12,2.43481425 C16.0689705,2.43481425 19.3792652,5.36537251 19.3792652,8.96757612 C19.3792166,12.7096432 14.7113042,18.3323258 12,21.1836926 Z"></path>
        <path d="M12.0000214,5 C9.79437569,5 8,6.79438972 8,9 C8,11.2056103 9.79441857,13 12.0000214,13 C14.2056243,13 16,11.2056103 16,9 C16,6.79438972 14.2056243,5 12.0000214,5 Z M12.0000214,11.5682956 C10.5838152,11.5682956 9.43172743,10.4161834 9.43172743,9 C9.43172743,7.58381658 10.5838581,6.43170442 12.0000214,6.43170442 C13.4161848,6.43170442 14.5683154,7.58381658 14.5683154,9 C14.5683154,10.4161834 13.4161848,11.5682956 12.0000214,11.5682956 Z"></path>
    </g>
</svg>